<svg xmlns="http://www.w3.org/2000/svg" width="499.906" height="494.761" viewBox="0 0 499.906 494.761">
  <g id="POLYGON" transform="translate(-1367.605 -406)">
    <g id="triangles">
      <g id="Polygone_2" data-name="Polygone 2" transform="translate(1546 406)" fill="#fff">
        <path d="M 142.1310119628906 122.5 L 0.8689881563186646 122.5 L 71.5 0.9949027299880981 L 142.1310119628906 122.5 Z" stroke="none"/>
        <path d="M 71.5 1.98980712890625 L 1.73797607421875 122 L 141.2620239257813 122 L 71.5 1.98980712890625 M 71.5 0 L 143 123 L 0 123 L 71.5 0 Z" stroke="none" fill="#707070"/>
      </g>
      <g id="Polygone_3" data-name="Polygone 3" transform="translate(1796.011 467.829) rotate(60)" fill="#fff">
        <path d="M 142.1310119628906 122.5 L 0.8689881563186646 122.5 L 71.5 0.9949027299880981 L 142.1310119628906 122.5 Z" stroke="none"/>
        <path d="M 71.5 1.98980712890625 L 1.73797607421875 122 L 141.2620239257813 122 L 71.5 1.98980712890625 M 71.5 0 L 143 123 L 0 123 L 71.5 0 Z" stroke="none" fill="#707070"/>
      </g>
      <g id="Polygone_4" data-name="Polygone 4" transform="translate(1867.161 715.16) rotate(120)" fill="#fff">
        <path d="M 142.1310119628906 122.5 L 0.8689881563186646 122.5 L 71.5 0.9949027299880981 L 142.1310119628906 122.5 Z" stroke="none"/>
        <path d="M 71.5 1.98980712890625 L 1.73797607421875 122 L 141.2620239257813 122 L 71.5 1.98980712890625 M 71.5 0 L 143 123 L 0 123 L 71.5 0 Z" stroke="none" fill="#707070"/>
      </g>
      <g id="Polygone_5" data-name="Polygone 5" transform="translate(1688.61 900.761) rotate(-180)" fill="#fff">
        <path d="M 142.1310119628906 122.5 L 0.8689881563186646 122.5 L 71.5 0.9949027299880981 L 142.1310119628906 122.5 Z" stroke="none"/>
        <path d="M 71.5 1.98980712890625 L 1.73797607421875 122 L 141.2620239257813 122 L 71.5 1.98980712890625 M 71.5 0 L 143 123 L 0 123 L 71.5 0 Z" stroke="none" fill="#707070"/>
      </g>
      <g id="Polygone_6" data-name="Polygone 6" transform="translate(1439.105 839.596) rotate(-120)" fill="#fff">
        <path d="M 142.1310119628906 122.5 L 0.8689881563186646 122.5 L 71.5 0.9949027299880981 L 142.1310119628906 122.5 Z" stroke="none"/>
        <path d="M 71.5 1.98980712890625 L 1.73797607421875 122 L 141.2620239257813 122 L 71.5 1.98980712890625 M 71.5 0 L 143 123 L 0 123 L 71.5 0 Z" stroke="none" fill="#707070"/>
      </g>
      <g id="Polygone_7" data-name="Polygone 7" transform="translate(1368.645 592.166) rotate(-60)" fill="#fff">
        <path d="M 142.1310119628906 122.5 L 0.8689881563186646 122.5 L 71.5 0.9949027299880981 L 142.1310119628906 122.5 Z" stroke="none"/>
        <path d="M 71.5 1.98980712890625 L 1.73797607421875 122 L 141.2620239257813 122 L 71.5 1.98980712890625 M 71.5 0 L 143 123 L 0 123 L 71.5 0 Z" stroke="none" fill="#707070"/>
      </g>
    </g>
    <g id="Polygone_1" data-name="Polygone 1" transform="translate(1473 528)" fill="#fff">
      <path d="M 216.4608001708984 250.5 L 72.53905487060547 250.5 L 0.5769373178482056 125.4999923706055 L 72.53912353515625 0.4999923706054688 L 216.4608001708984 0.4999923706054688 L 288.4230651855469 125.4999923706055 L 216.4608001708984 250.5 Z" stroke="none"/>
      <path d="M 72.82821655273438 0.9999847412109375 L 1.15386962890625 125.4999923706055 L 72.82814025878906 250 L 216.1717376708984 250 L 287.8461303710938 125.4999923706055 L 216.1717376708984 0.9999847412109375 L 72.82821655273438 0.9999847412109375 M 72.25004577636719 -1.52587890625e-05 L 216.7499237060547 -1.52587890625e-05 L 289 125.4999923706055 L 216.7499237060547 251 L 72.24995422363281 251 L 0 125.4999923706055 L 72.25004577636719 -1.52587890625e-05 Z" stroke="none" fill="#707070"/>
    </g>
  </g>
</svg>
