<svg xmlns="http://www.w3.org/2000/svg" width="896.351" height="821.18" viewBox="0 0 896.351 821.18">
  <g id="MENU" transform="translate(-506.324 -138.41)">
    <g id="Polygon">
      <g id="Polygone_1" data-name="Polygone 1" transform="translate(737 275)" fill="none">
        <path d="M223.5,0,447,387H0Z" stroke="none"/>
        <path d="M 223.5 1.999542236328125 L 1.7322998046875 386 L 445.2677001953125 386 L 223.5 1.999542236328125 M 223.5 0 L 447 387 L 0 387 L 223.5 0 Z" stroke="none" fill="#707070"/>
      </g>
      <g id="Polygone_2" data-name="Polygone 2" transform="translate(1184 805) rotate(180)" fill="none">
        <path d="M223.5,0,447,387H0Z" stroke="none"/>
        <path d="M 223.5 1.999542236328125 L 1.7322998046875 386 L 445.2677001953125 386 L 223.5 1.999542236328125 M 223.5 0 L 447 387 L 0 387 L 223.5 0 Z" stroke="none" fill="#707070"/>
      </g>
    </g>
    <g id="HEADINGS">
      <text id="MÉDIAS_CLASSIQUES" data-name="MÉDIAS CLASSIQUES" transform="translate(685 170)" fill="#707070" font-size="36" font-family="SegoeUI-Light, Segoe UI" font-weight="300"><tspan x="113.359" y="39">MÉDIAS CLASSIQUES</tspan></text>
      <text id="FOURNISSEURS_D_ACCÈS" data-name="FOURNISSEURS D&apos;ACCÈS" transform="translate(1127.176 142.41) rotate(60)" fill="#707070" font-size="20" font-family="SegoeUI-Light, Segoe UI" font-weight="300"><tspan x="170.207" y="22">FOURNISSEURS D&apos;ACCÈS</tspan></text>
      <text id="CONTENUS_CULTURELS" data-name="CONTENUS CULTURELS" transform="translate(1398.676 482.41) rotate(120)" fill="#707070" font-size="20" font-family="SegoeUI-Light, Segoe UI" font-weight="300"><tspan x="175.271" y="22">CONTENUS CULTURELS</tspan></text>
      <text id="ÉCONOMIE_DES_MÉDIAS" data-name="ÉCONOMIE DES MÉDIAS" transform="translate(1236 894) rotate(180)" fill="#707070" font-size="20" font-family="SegoeUI-Light, Segoe UI" font-weight="300"><tspan x="170.769" y="22">ÉCONOMIE DES MÉDIAS</tspan></text>
      <text id="RÉSEAUX_SOCIAUX" data-name="RÉSEAUX SOCIAUX" transform="translate(781.824 950.59) rotate(-120)" fill="#707070" font-size="20" font-family="SegoeUI-Light, Segoe UI" font-weight="300"><tspan x="194.768" y="22">RÉSEAUX SOCIAUX</tspan></text>
      <text id="RÉGULATION_DES_MÉDIAS" data-name="RÉGULATION DES MÉDIAS" transform="translate(515.324 615.59) rotate(-60)" fill="#707070" font-size="20" font-family="SegoeUI-Light, Segoe UI" font-weight="300"><tspan x="163.679" y="22">RÉGULATION DES MÉDIAS</tspan></text>
    </g>
  </g>
</svg>
